<?xml version="1.0" encoding="utf-8"?>
<!-- Generator: Adobe Illustrator 16.0.0, SVG Export Plug-In . SVG Version: 6.00 Build 0)  -->
<!DOCTYPE svg PUBLIC "-//W3C//DTD SVG 1.1//EN" "http://www.w3.org/Graphics/SVG/1.1/DTD/svg11.dtd">
<svg version="1.1" id="Layer_1" xmlns="http://www.w3.org/2000/svg" xmlns:xlink="http://www.w3.org/1999/xlink" x="0px" y="0px"
	 width="50px" height="50px" viewBox="0 0 50 50" enable-background="new 0 0 50 50" xml:space="preserve">
<title>x</title>
<circle fill="none" stroke="#BF973F" stroke-linecap="round" stroke-linejoin="round" stroke-miterlimit="10" cx="17.24" cy="17.332" r="10.05"/>
<circle fill="none" stroke="#BF973F" stroke-linecap="round" stroke-linejoin="round" stroke-miterlimit="10" cx="17.24" cy="16.332" r="3.307"/>
<circle fill="none" stroke="#BF973F" stroke-linecap="round" stroke-linejoin="round" stroke-miterlimit="10" cx="35.301" cy="20.726" r="2.894"/>
<line fill="none" stroke="#BF973F" stroke-linecap="round" stroke-linejoin="round" stroke-miterlimit="10" x1="27.505" y1="14.469" x2="35.302" y2="14.469"/>
<path fill="none" stroke="#BF973F" stroke-linecap="round" stroke-linejoin="round" stroke-miterlimit="10" d="M39.837,14.469h3.832
	c0,0,3.05,0.391,3.05,3.988V42.7c0,0,0.078,3.911-3.988,4.146H28.106c0,0-3.911,0.626-4.537-3.91V25.714"/>
<path fill="none" stroke="#BF973F" stroke-linecap="round" stroke-linejoin="round" stroke-miterlimit="10" d="M18.135,12.997
	c0,0,3.51-13.743,13.569-9.085C35,5.438,40.854,9.083,36.553,17.606"/>
<path fill="none" stroke="#BF973F" stroke-linecap="round" stroke-linejoin="round" stroke-miterlimit="10" d="M9.34,24.056
	L3.91,35.902c-0.356,0.764-0.292,1.657,0.168,2.363l1.297,2.001c0.458,0.695,1.232,1.116,2.064,1.123c0.11,0.006,0.22,0.006,0.33,0
	l1.322-0.182c0.966-0.14,1.769-0.816,2.07-1.745c0.052-0.168,0.172-0.306,0.331-0.381h0.062c0.437-0.183,0.814-0.482,1.091-0.866
	c0.049-0.059,0.088-0.123,0.119-0.193l0.318-0.643c0.031-0.071,0.054-0.147,0.068-0.224c0.083-0.452,0.042-0.917-0.118-1.348
	c-0.113-0.301,0.022-0.639,0.312-0.779h0.056c0.429-0.16,0.806-0.434,1.091-0.792c0.051-0.06,0.093-0.127,0.125-0.199l0.305-0.661
	c0.03-0.07,0.053-0.144,0.069-0.218c0.083-0.451,0.042-0.917-0.119-1.347c0.002-0.021,0.002-0.042,0-0.063
	c-0.038-0.139-0.027-0.286,0.031-0.418c0.061-0.134,0.167-0.242,0.299-0.305h0.069c0.428-0.164,0.805-0.439,1.091-0.799
	c0.049-0.058,0.089-0.123,0.119-0.193l0.299-0.623c0.034-0.068,0.057-0.143,0.068-0.219c0.085-0.439,0.051-0.894-0.1-1.315l0,0"/>
<polyline fill="none" stroke="#BF973F" stroke-linecap="round" stroke-linejoin="round" stroke-miterlimit="10" points="
	26.907,33.924 35.302,27.634 43.539,33.924 "/>
<polyline fill="none" stroke="#BF973F" stroke-linecap="round" stroke-linejoin="round" stroke-miterlimit="10" points="
	28.419,33.018 28.419,42.388 42.131,42.388 42.131,33.13 "/>
<path fill="none" stroke="#BF973F" stroke-linecap="round" stroke-linejoin="round" stroke-miterlimit="10" d="M33.06,41.814v-5.37
	c0,0,2.091-3.754,4.643-0.209v5.84"/>
</svg>
