<svg height='300px' width='300px' fill="#BF973F" xmlns="http://www.w3.org/2000/svg" data-name="Layer 1" viewBox="0 0 64 64" x="0px" y="0px"><title>x</title><path d="M17.78,17.12a5.57,5.57,0,1,0,7.37-2.74,4.78,4.78,0,0,0-.48-.19,11.66,11.66,0,0,1,1-3.71l.06-.14a11.07,11.07,0,0,1,1.62-2.43,11.52,11.52,0,0,1,20.32,7.46,4.18,4.18,0,0,1,0,.5,10.45,10.45,0,0,1-.53,3,11,11,0,0,1-1,2.19h-.14A5.12,5.12,0,0,0,41,25.86a1.56,1.56,0,0,0,0,.31A5,5,0,0,0,41.81,29a5.12,5.12,0,1,0,7.46-6.83,14.2,14.2,0,0,0,1.25-3.31,14.94,14.94,0,0,0,.4-3c0-.17,0-.33,0-.5A14.75,14.75,0,0,0,24,7a13.29,13.29,0,0,0-1.16,2c-.14.29-.27.59-.39.89a14,14,0,0,0-1,4.21A5.52,5.52,0,0,0,17.78,17.12ZM46.06,28.29a2.12,2.12,0,1,1,2.12-2.12A2.12,2.12,0,0,1,46.06,28.29ZM22.84,16.87a2.52,2.52,0,0,1,1.06.24,2.44,2.44,0,0,1,.61.39,2.56,2.56,0,0,1-2.74,4.26,2.55,2.55,0,0,1-.24-4.52A2.52,2.52,0,0,1,22.84,16.87Z"></path><path d="M56.4,15.87h-4V16A16.59,16.59,0,0,1,52,18.87H56.4a3.69,3.69,0,0,1,3.69,3.69V56.7a3.69,3.69,0,0,1-3.69,3.69H35.72A3.69,3.69,0,0,1,32,56.7V32.24A13.55,13.55,0,0,0,34,30a14.51,14.51,0,0,0,1.3-2.27c.12-.26.23-.52.34-.79a14.75,14.75,0,0,0,.74-8h9.21c.06-.15.13-.29.18-.45a9,9,0,0,0,.45-2.55H35.44a14.65,14.65,0,0,0-6.63-7.29l-.28.29A9.55,9.55,0,0,0,27.13,11l0,.1a11.74,11.74,0,0,1,5.44,5.61,12,12,0,0,1,.91,3,11.67,11.67,0,0,1-.91,6.79,8.74,8.74,0,0,1-.5,1,11.31,11.31,0,0,1-3,3.45A11.86,11.86,0,0,1,26,32.57a11.74,11.74,0,0,1-8.19-22,11.6,11.6,0,0,1,3.1-.7c.08-.21.15-.41.23-.6s.27-.65.43-1a14.19,14.19,0,0,1,.82-1.46,14.69,14.69,0,0,0-13.88,8.6A14.69,14.69,0,0,0,10,30.29l-8.71,19a3.91,3.91,0,0,0,.27,3.79l2.08,3.21a4,4,0,0,0,3.31,1.8,4.55,4.55,0,0,0,.53,0l2.12-.29A4.11,4.11,0,0,0,12.92,55a1,1,0,0,1,.53-.61l.1,0A4.11,4.11,0,0,0,15.3,53a1.23,1.23,0,0,0,.19-.31L16,51.66a1.65,1.65,0,0,0,.11-.36,4.07,4.07,0,0,0-.19-2.16,1,1,0,0,1,.5-1.25l.09,0a4.06,4.06,0,0,0,1.75-1.27,1.32,1.32,0,0,0,.2-.32l.49-1.06a2,2,0,0,0,.11-.35,4.07,4.07,0,0,0-.19-2.16.42.42,0,0,0,0-.1,1,1,0,0,1,.05-.67,1,1,0,0,1,.48-.49l.11,0a4.11,4.11,0,0,0,1.75-1.28,1.23,1.23,0,0,0,.19-.31l.48-1a1.18,1.18,0,0,0,.11-.35,4,4,0,0,0-.16-2.11h0A14.78,14.78,0,0,0,27,35.38a16.21,16.21,0,0,0,2-.93V56.7a6.7,6.7,0,0,0,6.69,6.69H56.4a6.7,6.7,0,0,0,6.69-6.69V22.56A6.7,6.7,0,0,0,56.4,15.87ZM18.76,38.37a1,1,0,0,1-.27.19l-.09,0A4,4,0,0,0,16,43.76l0,.08a.89.89,0,0,1,0,.33l-.29.65a1.15,1.15,0,0,1-.28.19l-.09,0a4,4,0,0,0-2.35,5.16.91.91,0,0,1,.06.42l-.29.65a1.2,1.2,0,0,1-.27.19l-.1,0a4,4,0,0,0-2.43,2.56,1.12,1.12,0,0,1-.89.78l-2.1.29a1,1,0,0,1-.92-.42L4.07,51.5A1,1,0,0,1,4,50.58l8.19-17.89A14.72,14.72,0,0,0,18.74,36,4,4,0,0,0,19,37.3a1,1,0,0,1,.06.42Z"></path><path d="M37.1,58H55a1.88,1.88,0,0,0,1.88-1.88V45.58a1.5,1.5,0,0,0,1-2.66L47.05,34.13a1.65,1.65,0,0,0-2,0L34.26,42.92A1.5,1.5,0,0,0,34,45a1.51,1.51,0,0,0,1.16.55h0V56.14A1.88,1.88,0,0,0,37.1,58Zm10.31-3h-2.7V48.38A1.44,1.44,0,0,1,46,46.91a1.34,1.34,0,0,1,1.44,1.35ZM38.22,43.64l7.84-6.38,7.84,6.38V55H50.41V48.26a4.35,4.35,0,0,0-4.62-4.34,4.42,4.42,0,0,0-4.08,4.46V55H38.22Z"></path></svg>