<?xml version="1.0" encoding="utf-8"?>
<!-- Generator: Adobe Illustrator 16.0.0, SVG Export Plug-In . SVG Version: 6.00 Build 0)  -->
<!DOCTYPE svg PUBLIC "-//W3C//DTD SVG 1.1//EN" "http://www.w3.org/Graphics/SVG/1.1/DTD/svg11.dtd">
<svg version="1.1" id="Layer_1" xmlns="http://www.w3.org/2000/svg" xmlns:xlink="http://www.w3.org/1999/xlink" x="0px" y="0px"
	 width="50px" height="50px" viewBox="0 0 50 50" enable-background="new 0 0 50 50" xml:space="preserve">
<g>
	<path fill="#BF973F" d="M25,49.833C11.307,49.833,0.167,38.692,0.167,25C0.167,11.307,11.307,0.167,25,0.167
		c13.692,0,24.833,11.14,24.833,24.833c0,4.854-1.402,9.554-4.051,13.597c-0.228,0.349-0.696,0.442-1.04,0.216
		c-0.348-0.226-0.444-0.693-0.218-1.04c2.488-3.8,3.804-8.216,3.804-12.772C48.328,12.137,37.863,1.672,25,1.672
		S1.672,12.137,1.672,25S12.137,48.328,25,48.328c4.069,0,8.076-1.064,11.586-3.078c0.36-0.205,0.818-0.085,1.027,0.279
		c0.209,0.36,0.082,0.82-0.279,1.027C33.598,48.7,29.333,49.833,25,49.833z"/>
</g>
</svg>
