<?xml version="1.0" encoding="utf-8"?>
<!-- Generator: Adobe Illustrator 16.0.0, SVG Export Plug-In . SVG Version: 6.00 Build 0)  -->
<!DOCTYPE svg PUBLIC "-//W3C//DTD SVG 1.1//EN" "http://www.w3.org/Graphics/SVG/1.1/DTD/svg11.dtd">
<svg version="1.1" id="Layer_1" xmlns="http://www.w3.org/2000/svg" xmlns:xlink="http://www.w3.org/1999/xlink" x="0px" y="0px"
	 width="50px" height="50px" viewBox="0 0 50 50" enable-background="new 0 0 50 50" xml:space="preserve">
<g>
	<g>
		<g>
			<path fill="#BF973F" d="M46.769,24.981c0-4.67-4.331-8.775-10.771-10.96c-0.377-1.055-0.754-2.072-1.244-3.013
				C32.382,6.074,28.803,3.25,25,3.25c-7.005,0-12.729,9.754-12.729,21.731c0,3.352,0.452,6.591,1.28,9.528
				c-5.46-2.071-9.076-5.574-9.076-9.528c0-3.503,2.824-6.779,7.759-8.964c0.301-0.15,0.452-0.489,0.301-0.828
				c-0.15-0.302-0.527-0.453-0.828-0.302c-5.349,2.411-8.474,6.102-8.474,10.094c0,4.67,4.331,8.774,10.771,10.997
				c0.527,1.545,1.13,2.976,1.883,4.256c2.411,4.181,5.649,6.516,9.114,6.516c4.03,0,7.72-3.127,10.132-8.549
				c0.151-0.303,0-0.678-0.302-0.829c-0.302-0.15-0.678,0-0.829,0.301c-2.222,4.973-5.498,7.835-9.001,7.835
				c-3.013,0-5.838-2.071-8.022-5.876c-0.565-0.979-1.054-2.034-1.507-3.202c2.863,0.829,6.102,1.282,9.529,1.282
				C36.978,37.712,46.769,31.986,46.769,24.981z M14.982,34.999c-0.979-3.013-1.469-6.439-1.469-10.018
				c0-11.299,5.16-20.526,11.487-20.526c3.315,0,6.478,2.598,8.662,7.081c0.302,0.64,0.565,1.28,0.83,1.996
				c-2.864-0.829-6.102-1.28-9.492-1.28c-2.975,0-5.875,0.339-8.55,1.017c-0.339,0.075-0.526,0.414-0.452,0.753
				c0.076,0.339,0.415,0.527,0.754,0.452c2.598-0.64,5.385-0.979,8.248-0.979c3.616,0,7.042,0.527,10.019,1.469
				c0.265,0.866,0.526,1.77,0.716,2.674c0.526,2.335,0.753,4.821,0.753,7.345c0,2.861-0.339,5.611-0.979,8.172
				c-0.076,0.34,0.112,0.679,0.451,0.754c0.34,0.075,0.678-0.113,0.753-0.452c0.679-2.674,0.979-5.536,0.979-8.474
				c0-2.637-0.264-5.16-0.791-7.608c-0.15-0.641-0.301-1.281-0.489-1.921c5.46,2.071,9.039,5.574,9.039,9.529
				C45.525,31.308,36.3,36.469,25,36.469C21.385,36.469,17.958,35.941,14.982,34.999z"/>
		</g>
	</g>
	<g>
		<g>
			<path fill="#BF973F" d="M18.786,26.073c0.829-0.302,1.243-0.866,1.243-1.582c0-0.904-0.791-1.657-2.222-1.657
				c-0.866,0-1.657,0.264-2.071,0.49l0.339,1.13c0.263-0.151,0.866-0.415,1.393-0.415c0.678,0,0.979,0.302,0.979,0.715
				c0,0.565-0.678,0.753-1.206,0.791h-0.602v1.131h0.64c0.678,0,1.356,0.3,1.356,0.979c0,0.488-0.415,0.903-1.243,0.903
				c-0.64,0-1.281-0.265-1.544-0.415l-0.339,1.167c0.377,0.265,1.13,0.49,1.997,0.49c1.694,0,2.75-0.866,2.75-2.071
				C20.255,26.826,19.577,26.224,18.786,26.073z"/>
		</g>
	</g>
	<g>
		<g>
			<path fill="#BF973F" d="M24.209,25.132c-0.64,0-1.092,0.188-1.431,0.526H22.74c0.188-0.791,0.791-1.506,2.185-1.619
				c0.263-0.038,0.452-0.038,0.602-0.038v-1.206c-0.15,0-0.339,0-0.64,0c-1.055,0.038-1.921,0.377-2.599,0.979
				c-0.715,0.678-1.205,1.732-1.205,2.975c0,1.62,0.866,2.938,2.674,2.938c1.469,0,2.486-1.093,2.486-2.449
				C26.281,25.923,25.339,25.132,24.209,25.132z M23.795,28.597c-0.716,0-1.055-0.641-1.093-1.356c0-0.188,0.038-0.301,0.076-0.376
				c0.15-0.339,0.489-0.603,0.941-0.603c0.678,0,1.017,0.527,1.017,1.167C24.699,28.107,24.36,28.597,23.795,28.597z"/>
		</g>
	</g>
	<g>
		<g>
			<path fill="#BF973F" d="M29.482,22.796c-1.732,0-2.563,1.545-2.563,3.503c0,1.92,0.791,3.465,2.524,3.465
				c1.732,0,2.561-1.432,2.561-3.503C31.968,24.416,31.251,22.796,29.482,22.796z M29.444,28.56c-0.603,0-0.979-0.754-0.979-2.26
				c0-1.545,0.377-2.298,0.979-2.298c0.641,0,0.941,0.791,0.941,2.26C30.386,27.806,30.085,28.56,29.444,28.56z"/>
		</g>
	</g>
	<g>
		<g>
			<path fill="#BF973F" d="M33.511,18.842c-1.242,0-2.26,1.016-2.26,2.26c0,1.243,1.018,2.26,2.26,2.26
				c1.243,0,2.26-1.017,2.26-2.26C35.81,19.858,34.754,18.842,33.511,18.842z M33.511,22.157c-0.563,0-1.017-0.452-1.017-1.017
				c0-0.565,0.453-1.017,1.017-1.017c0.565,0,1.018,0.452,1.018,1.017C34.566,21.705,34.076,22.157,33.511,22.157z"/>
		</g>
	</g>
</g>
</svg>
